<svg role="img" width="256" height="256" viewBox="0 0 64 64" xmlns="http://www.w3.org/2000/svg"><title>WWM — World Wide Map Service</title>
  <defs><linearGradient id="wwm-g" x1="0" y1="0" x2="1" y2="1"><stop offset="0" stop-color="#34D399"/><stop offset="1" stop-color="#047857"/></linearGradient></defs>
  <rect width="64" height="64" rx="16" fill="url(#wwm-g)"/>
  <path d="M10 21C15 6 34 3 41.5 10.5" fill="none" stroke="#fff" stroke-opacity=".62" stroke-width="1.7" stroke-linecap="round" stroke-dasharray="0.1 3.6"/>
  <rect x="6" y="28" width="38" height="24" rx="5" fill="#fff"/>
    <rect x="9.6" y="31.6" width="30.8" height="16.8" rx="2.4" fill="#065F46"/>
    <rect x="21" y="52" width="8" height="4.2" fill="#fff"/>
    <rect x="15" y="56" width="20" height="3.6" rx="1.8" fill="#fff"/>
  <circle cx="25" cy="40" r="6.4" fill="#34D399"/>
  <g fill="none" stroke="#065F46" stroke-opacity=".55" stroke-width="0.9"><ellipse cx="25" cy="40" rx="2.69" ry="6.4"/><path d="M18.6,40H31.4"/></g>
  <g transform="translate(43.5,19) rotate(38) scale(0.58)">
    <rect x="-12" y="-1.4" width="24" height="2.8" fill="#fff"/>
    <rect x="-24" y="-7.5" width="13" height="15" rx="1.4" fill="#A7F3D0"/><path d="M-20,-7V7M-16,-7V7M-24,0H-12" stroke="#047857" stroke-width="1.15" fill="none"/>
    <rect x="11" y="-7.5" width="13" height="15" rx="1.4" fill="#A7F3D0"/><path d="M15,-7V7M19,-7V7M11,0H23" stroke="#047857" stroke-width="1.15" fill="none"/>
    <rect x="-6" y="-7" width="12" height="14" rx="3" fill="#fff"/>
    <rect x="-3" y="-3" width="6" height="6" rx="1.6" fill="#047857" opacity=".55"/>
    <path d="M-5.5,8.5Q0,17 5.5,8.5Z" fill="#fff"/><rect x="-.8" y="8" width="1.6" height="5" fill="#fff"/>
    <rect x="-.8" y="-12.5" width="1.6" height="6" fill="#fff"/><circle cy="-13.4" r="2" fill="#fff"/>
  </g>
</svg>
